<mxfile host="app.diagrams.net" modified="2022-01-17T15:00:17.645Z" agent="5.0 (Macintosh; Intel Mac OS X 10_15_7) AppleWebKit/605.1.15 (KHTML, like Gecko) Version/15.1 Safari/605.1.15" etag="QF4dbPb1MDQtbjFXU0E4" version="16.2.6" type="github">
  <diagram id="yKbS8oL_tTfijeUSH0Gv" name="Page-1">
    <mxGraphModel dx="1113" dy="792" grid="1" gridSize="10" guides="1" tooltips="1" connect="1" arrows="1" fold="1" page="1" pageScale="1" pageWidth="827" pageHeight="1169" math="0" shadow="0">
      <root>
        <mxCell id="0" />
        <mxCell id="1" parent="0" />
        <mxCell id="okdL1--uz-UlyfE_Y6uE-3" value="" style="group" vertex="1" connectable="0" parent="1">
          <mxGeometry x="216" y="108" width="574" height="162" as="geometry" />
        </mxCell>
        <mxCell id="okdL1--uz-UlyfE_Y6uE-1" value="" style="shape=folder;fontStyle=1;spacingTop=10;tabWidth=40;tabHeight=14;tabPosition=left;html=1;shadow=0;fontSize=13;fillColor=none;" vertex="1" parent="okdL1--uz-UlyfE_Y6uE-3">
          <mxGeometry x="4.028070175438597" y="2" width="569.9719298245615" height="98" as="geometry" />
        </mxCell>
        <mxCell id="okdL1--uz-UlyfE_Y6uE-2" value="&lt;b&gt;UI&lt;/b&gt;" style="text;html=1;strokeColor=none;fillColor=none;align=center;verticalAlign=middle;whiteSpace=wrap;rounded=0;shadow=0;fontSize=13;" vertex="1" parent="okdL1--uz-UlyfE_Y6uE-3">
          <mxGeometry width="46.32280701754386" height="17" as="geometry" />
        </mxCell>
        <mxCell id="okdL1--uz-UlyfE_Y6uE-25" value="" style="group" vertex="1" connectable="0" parent="okdL1--uz-UlyfE_Y6uE-3">
          <mxGeometry x="24.16842105263158" y="32" width="116.8140350877193" height="58" as="geometry" />
        </mxCell>
        <mxCell id="okdL1--uz-UlyfE_Y6uE-26" value="" style="shape=folder;fontStyle=1;spacingTop=10;tabWidth=87;tabHeight=18;tabPosition=left;html=1;shadow=0;fontSize=13;fillColor=none;" vertex="1" parent="okdL1--uz-UlyfE_Y6uE-25">
          <mxGeometry x="3.0210526315789474" y="-8" width="116.81403508771932" height="58" as="geometry" />
        </mxCell>
        <mxCell id="okdL1--uz-UlyfE_Y6uE-27" value="MainWindows" style="text;html=1;strokeColor=none;fillColor=none;align=center;verticalAlign=middle;whiteSpace=wrap;rounded=0;shadow=0;fontSize=13;" vertex="1" parent="okdL1--uz-UlyfE_Y6uE-25">
          <mxGeometry x="20.140350877192983" y="-8" width="51.917348927875246" height="19.333333333333332" as="geometry" />
        </mxCell>
        <mxCell id="okdL1--uz-UlyfE_Y6uE-33" value="" style="group" vertex="1" connectable="0" parent="okdL1--uz-UlyfE_Y6uE-3">
          <mxGeometry x="175.22105263157894" y="32" width="116.8140350877193" height="58" as="geometry" />
        </mxCell>
        <mxCell id="okdL1--uz-UlyfE_Y6uE-34" value="" style="shape=folder;fontStyle=1;spacingTop=10;tabWidth=87;tabHeight=18;tabPosition=left;html=1;shadow=0;fontSize=13;fillColor=none;" vertex="1" parent="okdL1--uz-UlyfE_Y6uE-33">
          <mxGeometry x="3.0210526315789474" y="-8" width="116.81403508771932" height="58" as="geometry" />
        </mxCell>
        <mxCell id="okdL1--uz-UlyfE_Y6uE-35" value="ModelBuilder" style="text;html=1;strokeColor=none;fillColor=none;align=center;verticalAlign=middle;whiteSpace=wrap;rounded=0;shadow=0;fontSize=13;" vertex="1" parent="okdL1--uz-UlyfE_Y6uE-33">
          <mxGeometry x="20.140350877192983" y="-8" width="51.917348927875246" height="19.333333333333332" as="geometry" />
        </mxCell>
        <mxCell id="okdL1--uz-UlyfE_Y6uE-36" value="" style="group" vertex="1" connectable="0" parent="okdL1--uz-UlyfE_Y6uE-3">
          <mxGeometry x="306.1333333333333" y="32" width="116.8140350877193" height="58" as="geometry" />
        </mxCell>
        <mxCell id="okdL1--uz-UlyfE_Y6uE-37" value="" style="shape=folder;fontStyle=1;spacingTop=10;tabWidth=87;tabHeight=18;tabPosition=left;html=1;shadow=0;fontSize=13;fillColor=none;" vertex="1" parent="okdL1--uz-UlyfE_Y6uE-36">
          <mxGeometry x="3.0210526315789474" y="-8" width="116.81403508771932" height="58" as="geometry" />
        </mxCell>
        <mxCell id="okdL1--uz-UlyfE_Y6uE-38" value="Views" style="text;html=1;strokeColor=none;fillColor=none;align=center;verticalAlign=middle;whiteSpace=wrap;rounded=0;shadow=0;fontSize=13;" vertex="1" parent="okdL1--uz-UlyfE_Y6uE-36">
          <mxGeometry x="20.140350877192983" y="-8" width="51.917348927875246" height="19.333333333333332" as="geometry" />
        </mxCell>
        <mxCell id="okdL1--uz-UlyfE_Y6uE-39" value="" style="group" vertex="1" connectable="0" parent="okdL1--uz-UlyfE_Y6uE-3">
          <mxGeometry x="437.04561403508774" y="32" width="116.8140350877193" height="58" as="geometry" />
        </mxCell>
        <mxCell id="okdL1--uz-UlyfE_Y6uE-40" value="" style="shape=folder;fontStyle=1;spacingTop=10;tabWidth=87;tabHeight=18;tabPosition=left;html=1;shadow=0;fontSize=13;fillColor=none;" vertex="1" parent="okdL1--uz-UlyfE_Y6uE-39">
          <mxGeometry x="3.0210526315789474" y="-8" width="116.81403508771932" height="58" as="geometry" />
        </mxCell>
        <mxCell id="okdL1--uz-UlyfE_Y6uE-41" value="Menus" style="text;html=1;strokeColor=none;fillColor=none;align=center;verticalAlign=middle;whiteSpace=wrap;rounded=0;shadow=0;fontSize=13;" vertex="1" parent="1">
          <mxGeometry x="653" y="132" width="51.55555555555556" height="19.333333333333332" as="geometry" />
        </mxCell>
        <mxCell id="okdL1--uz-UlyfE_Y6uE-43" value="" style="shape=folder;fontStyle=1;spacingTop=10;tabWidth=100;tabHeight=22;tabPosition=left;html=1;shadow=0;fontSize=13;fillColor=none;" vertex="1" parent="1">
          <mxGeometry x="220" y="390" width="220" height="118" as="geometry" />
        </mxCell>
        <mxCell id="okdL1--uz-UlyfE_Y6uE-44" value="&lt;b&gt;ModelConverter&lt;/b&gt;" style="text;html=1;strokeColor=none;fillColor=none;align=center;verticalAlign=middle;whiteSpace=wrap;rounded=0;shadow=0;fontSize=13;" vertex="1" parent="1">
          <mxGeometry x="242" y="382" width="56" height="38" as="geometry" />
        </mxCell>
        <mxCell id="okdL1--uz-UlyfE_Y6uE-57" value="" style="group" vertex="1" connectable="0" parent="1">
          <mxGeometry x="238" y="419" width="88" height="69" as="geometry" />
        </mxCell>
        <mxCell id="okdL1--uz-UlyfE_Y6uE-45" value="" style="shape=folder;fontStyle=1;spacingTop=10;tabWidth=56;tabHeight=15;tabPosition=left;html=1;shadow=0;fontSize=13;fillColor=none;" vertex="1" parent="okdL1--uz-UlyfE_Y6uE-57">
          <mxGeometry x="2" y="14" width="86" height="55" as="geometry" />
        </mxCell>
        <mxCell id="okdL1--uz-UlyfE_Y6uE-46" value="Adapter" style="text;html=1;strokeColor=none;fillColor=none;align=center;verticalAlign=middle;whiteSpace=wrap;rounded=0;shadow=0;fontSize=13;" vertex="1" parent="okdL1--uz-UlyfE_Y6uE-57">
          <mxGeometry width="60" height="39" as="geometry" />
        </mxCell>
        <mxCell id="okdL1--uz-UlyfE_Y6uE-58" value="" style="group" vertex="1" connectable="0" parent="1">
          <mxGeometry x="336" y="418" width="88" height="69" as="geometry" />
        </mxCell>
        <mxCell id="okdL1--uz-UlyfE_Y6uE-59" value="" style="shape=folder;fontStyle=1;spacingTop=10;tabWidth=68;tabHeight=16;tabPosition=left;html=1;shadow=0;fontSize=13;fillColor=none;" vertex="1" parent="okdL1--uz-UlyfE_Y6uE-58">
          <mxGeometry x="2" y="14" width="86" height="55" as="geometry" />
        </mxCell>
        <mxCell id="okdL1--uz-UlyfE_Y6uE-60" value="Converter" style="text;html=1;strokeColor=none;fillColor=none;align=center;verticalAlign=middle;whiteSpace=wrap;rounded=0;shadow=0;fontSize=13;" vertex="1" parent="okdL1--uz-UlyfE_Y6uE-58">
          <mxGeometry x="5" y="1" width="60" height="39" as="geometry" />
        </mxCell>
        <mxCell id="okdL1--uz-UlyfE_Y6uE-5" value="" style="shape=folder;fontStyle=1;spacingTop=10;tabWidth=87;tabHeight=20;tabPosition=left;html=1;shadow=0;fontSize=13;fillColor=none;" vertex="1" parent="1">
          <mxGeometry x="220" y="240" width="570" height="110" as="geometry" />
        </mxCell>
        <mxCell id="okdL1--uz-UlyfE_Y6uE-8" value="&lt;b&gt;ModelBuilder&lt;/b&gt;" style="text;html=1;strokeColor=none;fillColor=none;align=center;verticalAlign=middle;whiteSpace=wrap;rounded=0;shadow=0;fontSize=13;" vertex="1" parent="1">
          <mxGeometry x="237" y="240" width="50" height="20" as="geometry" />
        </mxCell>
        <mxCell id="okdL1--uz-UlyfE_Y6uE-11" value="" style="group" vertex="1" connectable="0" parent="1">
          <mxGeometry x="247" y="270" width="90" height="60" as="geometry" />
        </mxCell>
        <mxCell id="okdL1--uz-UlyfE_Y6uE-9" value="" style="shape=folder;fontStyle=1;spacingTop=10;tabWidth=55;tabHeight=20;tabPosition=left;html=1;shadow=0;fontSize=13;fillColor=none;" vertex="1" parent="okdL1--uz-UlyfE_Y6uE-11">
          <mxGeometry width="90" height="60" as="geometry" />
        </mxCell>
        <mxCell id="okdL1--uz-UlyfE_Y6uE-10" value="Profiles" style="text;html=1;strokeColor=none;fillColor=none;align=center;verticalAlign=middle;whiteSpace=wrap;rounded=0;shadow=0;fontSize=13;" vertex="1" parent="okdL1--uz-UlyfE_Y6uE-11">
          <mxGeometry x="9" width="40" height="20" as="geometry" />
        </mxCell>
        <mxCell id="okdL1--uz-UlyfE_Y6uE-12" value="" style="group" vertex="1" connectable="0" parent="1">
          <mxGeometry x="367" y="270" width="90" height="60" as="geometry" />
        </mxCell>
        <mxCell id="okdL1--uz-UlyfE_Y6uE-13" value="" style="shape=folder;fontStyle=1;spacingTop=10;tabWidth=60;tabHeight=20;tabPosition=left;html=1;shadow=0;fontSize=13;fillColor=none;" vertex="1" parent="okdL1--uz-UlyfE_Y6uE-12">
          <mxGeometry width="90" height="60" as="geometry" />
        </mxCell>
        <mxCell id="okdL1--uz-UlyfE_Y6uE-14" value="Diagrams" style="text;html=1;strokeColor=none;fillColor=none;align=center;verticalAlign=middle;whiteSpace=wrap;rounded=0;shadow=0;fontSize=13;" vertex="1" parent="okdL1--uz-UlyfE_Y6uE-12">
          <mxGeometry x="9" width="40" height="20" as="geometry" />
        </mxCell>
        <mxCell id="okdL1--uz-UlyfE_Y6uE-15" value="" style="group" vertex="1" connectable="0" parent="1">
          <mxGeometry x="685" y="270" width="90" height="60" as="geometry" />
        </mxCell>
        <mxCell id="okdL1--uz-UlyfE_Y6uE-16" value="" style="shape=folder;fontStyle=1;spacingTop=10;tabWidth=70;tabHeight=20;tabPosition=left;html=1;shadow=0;fontSize=13;fillColor=none;" vertex="1" parent="okdL1--uz-UlyfE_Y6uE-15">
          <mxGeometry width="90" height="60" as="geometry" />
        </mxCell>
        <mxCell id="okdL1--uz-UlyfE_Y6uE-17" value="Properties" style="text;html=1;strokeColor=none;fillColor=none;align=center;verticalAlign=middle;whiteSpace=wrap;rounded=0;shadow=0;fontSize=13;" vertex="1" parent="okdL1--uz-UlyfE_Y6uE-15">
          <mxGeometry x="14" width="40" height="20" as="geometry" />
        </mxCell>
        <mxCell id="okdL1--uz-UlyfE_Y6uE-18" value="" style="group" vertex="1" connectable="0" parent="1">
          <mxGeometry x="580" y="270" width="90" height="60" as="geometry" />
        </mxCell>
        <mxCell id="okdL1--uz-UlyfE_Y6uE-19" value="" style="shape=folder;fontStyle=1;spacingTop=10;tabWidth=60;tabHeight=20;tabPosition=left;html=1;shadow=0;fontSize=13;fillColor=none;" vertex="1" parent="okdL1--uz-UlyfE_Y6uE-18">
          <mxGeometry width="90" height="60" as="geometry" />
        </mxCell>
        <mxCell id="okdL1--uz-UlyfE_Y6uE-20" value="Filters" style="text;html=1;strokeColor=none;fillColor=none;align=center;verticalAlign=middle;whiteSpace=wrap;rounded=0;shadow=0;fontSize=13;" vertex="1" parent="okdL1--uz-UlyfE_Y6uE-18">
          <mxGeometry x="9" width="40" height="20" as="geometry" />
        </mxCell>
        <mxCell id="okdL1--uz-UlyfE_Y6uE-21" value="" style="group" vertex="1" connectable="0" parent="1">
          <mxGeometry x="480" y="270" width="90" height="60" as="geometry" />
        </mxCell>
        <mxCell id="okdL1--uz-UlyfE_Y6uE-22" value="" style="shape=folder;fontStyle=1;spacingTop=10;tabWidth=60;tabHeight=20;tabPosition=left;html=1;shadow=0;fontSize=13;fillColor=none;" vertex="1" parent="okdL1--uz-UlyfE_Y6uE-21">
          <mxGeometry width="90" height="60" as="geometry" />
        </mxCell>
        <mxCell id="okdL1--uz-UlyfE_Y6uE-23" value="Tools" style="text;html=1;strokeColor=none;fillColor=none;align=center;verticalAlign=middle;whiteSpace=wrap;rounded=0;shadow=0;fontSize=13;" vertex="1" parent="okdL1--uz-UlyfE_Y6uE-21">
          <mxGeometry x="9" width="40" height="20" as="geometry" />
        </mxCell>
        <mxCell id="okdL1--uz-UlyfE_Y6uE-49" value="" style="shape=folder;fontStyle=1;spacingTop=10;tabWidth=110;tabHeight=26;tabPosition=left;html=1;shadow=0;fontSize=13;fillColor=none;container=0;" vertex="1" parent="1">
          <mxGeometry x="480" y="390" width="310" height="120" as="geometry" />
        </mxCell>
        <mxCell id="okdL1--uz-UlyfE_Y6uE-50" value="&lt;b&gt;ReliabilityVerifier&lt;/b&gt;" style="text;html=1;strokeColor=none;fillColor=none;align=center;verticalAlign=middle;whiteSpace=wrap;rounded=0;shadow=0;fontSize=13;container=0;" vertex="1" parent="1">
          <mxGeometry x="505" y="385" width="60" height="30" as="geometry" />
        </mxCell>
        <mxCell id="okdL1--uz-UlyfE_Y6uE-51" value="" style="shape=folder;fontStyle=1;spacingTop=10;tabWidth=80;tabHeight=20;tabPosition=left;html=1;shadow=0;fontSize=13;fillColor=none;container=0;" vertex="1" parent="1">
          <mxGeometry x="490" y="434" width="90" height="50" as="geometry" />
        </mxCell>
        <mxCell id="okdL1--uz-UlyfE_Y6uE-52" value="Transformer" style="text;html=1;strokeColor=none;fillColor=none;align=center;verticalAlign=middle;whiteSpace=wrap;rounded=0;shadow=0;fontSize=13;container=0;" vertex="1" parent="1">
          <mxGeometry x="500" y="434" width="60" height="20" as="geometry" />
        </mxCell>
        <mxCell id="okdL1--uz-UlyfE_Y6uE-66" value="" style="group" vertex="1" connectable="0" parent="1">
          <mxGeometry x="589.56" y="428" width="90" height="56" as="geometry" />
        </mxCell>
        <mxCell id="okdL1--uz-UlyfE_Y6uE-67" value="" style="group" vertex="1" connectable="0" parent="okdL1--uz-UlyfE_Y6uE-66">
          <mxGeometry width="90" height="56" as="geometry" />
        </mxCell>
        <mxCell id="okdL1--uz-UlyfE_Y6uE-55" value="" style="shape=folder;fontStyle=1;spacingTop=10;tabWidth=60;tabHeight=20;tabPosition=left;html=1;shadow=0;fontSize=13;fillColor=none;container=0;" vertex="1" parent="okdL1--uz-UlyfE_Y6uE-67">
          <mxGeometry y="6" width="90" height="50" as="geometry" />
        </mxCell>
        <mxCell id="okdL1--uz-UlyfE_Y6uE-56" value="Analysis" style="text;html=1;strokeColor=none;fillColor=none;align=center;verticalAlign=middle;whiteSpace=wrap;rounded=0;shadow=0;fontSize=13;container=0;" vertex="1" parent="okdL1--uz-UlyfE_Y6uE-67">
          <mxGeometry width="60" height="30" as="geometry" />
        </mxCell>
        <mxCell id="okdL1--uz-UlyfE_Y6uE-68" value="" style="group" vertex="1" connectable="0" parent="1">
          <mxGeometry x="692" y="427.48" width="90" height="56.51999999999998" as="geometry" />
        </mxCell>
        <mxCell id="okdL1--uz-UlyfE_Y6uE-54" value="Drawing" style="text;html=1;strokeColor=none;fillColor=none;align=center;verticalAlign=middle;whiteSpace=wrap;rounded=0;shadow=0;fontSize=13;container=0;" vertex="1" parent="okdL1--uz-UlyfE_Y6uE-68">
          <mxGeometry width="60" height="31.03448275862069" as="geometry" />
        </mxCell>
        <mxCell id="okdL1--uz-UlyfE_Y6uE-65" value="" style="shape=folder;fontStyle=1;spacingTop=10;tabWidth=60;tabHeight=20;tabPosition=left;html=1;shadow=0;fontSize=13;fillColor=none;container=0;" vertex="1" parent="okdL1--uz-UlyfE_Y6uE-68">
          <mxGeometry y="6.519999999999982" width="90" height="50" as="geometry" />
        </mxCell>
        <mxCell id="okdL1--uz-UlyfE_Y6uE-71" value="" style="endArrow=classic;html=1;rounded=0;fontSize=13;entryX=0.447;entryY=0.199;entryDx=0;entryDy=0;entryPerimeter=0;dashed=1;dashPattern=1 1;" edge="1" parent="1" target="okdL1--uz-UlyfE_Y6uE-5">
          <mxGeometry width="50" height="50" relative="1" as="geometry">
            <mxPoint x="475" y="210" as="sourcePoint" />
            <mxPoint x="430" y="400" as="targetPoint" />
          </mxGeometry>
        </mxCell>
        <mxCell id="okdL1--uz-UlyfE_Y6uE-72" value="" style="endArrow=classic;html=1;rounded=0;fontSize=13;dashed=1;dashPattern=1 1;exitX=0.25;exitY=1;exitDx=0;exitDy=0;exitPerimeter=0;entryX=0.645;entryY=0.169;entryDx=0;entryDy=0;entryPerimeter=0;" edge="1" parent="1" source="okdL1--uz-UlyfE_Y6uE-5" target="okdL1--uz-UlyfE_Y6uE-43">
          <mxGeometry width="50" height="50" relative="1" as="geometry">
            <mxPoint x="484.9999999999998" y="220" as="sourcePoint" />
            <mxPoint x="362" y="390" as="targetPoint" />
          </mxGeometry>
        </mxCell>
        <mxCell id="okdL1--uz-UlyfE_Y6uE-73" value="" style="endArrow=classic;html=1;rounded=0;fontSize=13;dashed=1;dashPattern=1 1;entryX=0.006;entryY=0.539;entryDx=0;entryDy=0;entryPerimeter=0;" edge="1" parent="1">
          <mxGeometry width="50" height="50" relative="1" as="geometry">
            <mxPoint x="440" y="455" as="sourcePoint" />
            <mxPoint x="481.8599999999999" y="454.68000000000006" as="targetPoint" />
          </mxGeometry>
        </mxCell>
      </root>
    </mxGraphModel>
  </diagram>
</mxfile>
